# xmcd
#
# Track frame offsets:
#	150
#	16767
#	31003
#	47116
#	56891
#	72288
#	92150
#	97571
#	112989
#	126149
#	142971
#	158355
#	170962
#
# Disc length: 2407 seconds
#
# Revision: 0
# Processed by: cddbd v1.5.2PL0 Copyright (c) Steve Scherf et al.
# Submitted via: dBpowerAMP V4.0
#
DISCID=9d09650d
DTITLE=Yannatou Savina - Dreams of the mermaid
DYEAR=1900
DGENRE=Other
TTITLE0=A morn spent in a foreign city
TTITLE1=Yellow-blue
TTITLE2=Distance
TTITLE3=Official illusion
TTITLE4=The end
TTITLE5=Suppose that you ..
TTITLE6=Is King Alexander alive ?
TTITLE7=Adolescence
TTITLE8=Slow take
TTITLE9=With Bill Evans on the record tape
TTITLE10=Samothrace
TTITLE11=Sketches
TTITLE12=Note
EXTD=
EXTT0=
EXTT1=
EXTT2=
EXTT3=
EXTT4=
EXTT5=
EXTT6=
EXTT7=
EXTT8=
EXTT9=
EXTT10=
EXTT11=
EXTT12=
PLAYORDER=
